<svg width="376" height="195" viewBox="0 0 376 195" fill="none" xmlns="http://www.w3.org/2000/svg">
<path d="M94.918 52.294V63.206C94.918 71.142 94.918 75.42 96.22 76.536C97.274 77.466 98.886 77.9 103.722 77.9C107.008 77.9 109.426 77.838 110.976 76.164C111.72 75.358 112.464 73.622 112.588 72.444C112.65 71.886 112.774 71.514 113.27 71.514C113.704 71.514 113.766 71.824 113.766 72.568C113.766 73.25 113.332 77.9 112.836 79.698C112.464 81.062 112.154 81.372 108.93 81.372C104.466 81.372 101.242 81.248 98.452 81.186C95.662 81.062 93.43 81 90.888 81C90.206 81 88.842 81 87.354 81.062C85.928 81.062 84.316 81.186 83.076 81.186C82.27 81.186 81.836 81 81.836 80.566C81.836 80.256 82.084 80.07 82.828 80.07C83.758 80.07 84.502 79.946 85.06 79.822C86.3 79.574 86.61 78.21 86.858 76.412C87.168 73.808 87.168 68.91 87.168 63.206V52.294C87.168 42.87 87.168 41.134 87.044 39.15C86.92 37.042 86.424 36.05 84.378 35.616C83.882 35.492 83.138 35.43 82.332 35.43C81.65 35.43 81.278 35.306 81.278 34.872C81.278 34.438 81.712 34.314 82.642 34.314C85.556 34.314 89.462 34.5 91.136 34.5C92.624 34.5 97.15 34.314 99.568 34.314C100.436 34.314 100.87 34.438 100.87 34.872C100.87 35.306 100.498 35.43 99.754 35.43C99.072 35.43 98.08 35.492 97.336 35.616C95.662 35.926 95.166 36.98 95.042 39.15C94.918 41.134 94.918 42.87 94.918 52.294ZM129.986 63.206V37.786L120.748 38.034C117.152 38.158 115.664 38.468 114.734 39.832C114.114 40.762 113.804 41.506 113.68 42.002C113.556 42.498 113.37 42.746 112.998 42.746C112.564 42.746 112.44 42.436 112.44 41.754C112.44 40.762 113.618 35.12 113.742 34.624C113.928 33.818 114.114 33.446 114.486 33.446C114.982 33.446 115.602 34.066 117.152 34.19C118.95 34.376 121.306 34.5 123.352 34.5H147.904C149.888 34.5 151.252 34.314 152.182 34.19C153.112 34.004 153.608 33.88 153.856 33.88C154.29 33.88 154.352 34.252 154.352 35.182C154.352 36.484 154.166 40.762 154.166 42.374C154.104 42.994 153.98 43.366 153.608 43.366C153.112 43.366 152.988 43.056 152.926 42.126L152.864 41.444C152.74 39.832 151.066 38.096 145.548 37.972L137.736 37.786V63.206C137.736 68.91 137.736 73.808 138.046 76.474C138.232 78.21 138.604 79.574 140.464 79.822C141.332 79.946 142.696 80.07 143.626 80.07C144.308 80.07 144.618 80.256 144.618 80.566C144.618 81 144.122 81.186 143.44 81.186C139.348 81.186 135.442 81 133.706 81C132.28 81 128.374 81.186 125.894 81.186C125.088 81.186 124.654 81 124.654 80.566C124.654 80.256 124.902 80.07 125.646 80.07C126.576 80.07 127.32 79.946 127.878 79.822C129.118 79.574 129.49 78.21 129.676 76.412C129.986 73.808 129.986 68.91 129.986 63.206ZM173.005 70.212V65.128C173.005 61.78 172.385 60.416 171.579 58.618C171.145 57.626 162.837 43.986 160.667 40.762C159.117 38.468 157.567 36.918 156.389 36.236C155.583 35.802 154.529 35.43 153.785 35.43C153.289 35.43 152.855 35.306 152.855 34.872C152.855 34.5 153.289 34.314 154.033 34.314C155.149 34.314 159.799 34.5 161.845 34.5C163.147 34.5 165.689 34.314 168.479 34.314C169.099 34.314 169.409 34.5 169.409 34.872C169.409 35.244 168.975 35.306 168.045 35.554C167.487 35.678 167.177 36.174 167.177 36.67C167.177 37.166 167.487 37.91 167.921 38.778C168.789 40.638 177.469 55.58 178.461 57.316C179.081 55.828 186.893 42.188 187.761 40.266C188.381 38.902 188.629 37.848 188.629 37.042C188.629 36.422 188.381 35.74 187.327 35.492C186.769 35.368 186.211 35.244 186.211 34.872C186.211 34.438 186.521 34.314 187.265 34.314C189.311 34.314 191.295 34.5 193.093 34.5C194.457 34.5 198.549 34.314 199.727 34.314C200.409 34.314 200.843 34.438 200.843 34.81C200.843 35.244 200.347 35.43 199.665 35.43C199.045 35.43 197.867 35.678 196.937 36.174C195.635 36.794 194.953 37.538 193.589 39.212C191.543 41.692 182.863 56.262 181.747 58.928C180.817 61.16 180.817 63.082 180.817 65.128V70.212C180.817 71.204 180.817 73.808 181.003 76.412C181.127 78.21 181.685 79.574 183.545 79.822C184.413 79.946 185.777 80.07 186.645 80.07C187.327 80.07 187.637 80.256 187.637 80.566C187.637 81 187.141 81.186 186.335 81.186C182.429 81.186 178.523 81 176.849 81C175.299 81 171.393 81.186 169.099 81.186C168.231 81.186 167.735 81.062 167.735 80.566C167.735 80.256 168.045 80.07 168.727 80.07C169.595 80.07 170.339 79.946 170.897 79.822C172.137 79.574 172.695 78.21 172.819 76.412C173.005 73.808 173.005 71.204 173.005 70.212ZM210.386 46.714L211.068 72.754C211.192 77.59 211.998 79.202 213.238 79.636C214.292 80.008 215.47 80.07 216.462 80.07C217.144 80.07 217.516 80.194 217.516 80.566C217.516 81.062 216.958 81.186 216.09 81.186C212.06 81.186 209.58 81 208.402 81C207.844 81 204.93 81.186 201.706 81.186C200.9 81.186 200.342 81.124 200.342 80.566C200.342 80.194 200.714 80.07 201.334 80.07C202.14 80.07 203.256 80.008 204.124 79.76C205.736 79.264 205.984 77.466 206.046 72.072L206.604 35.368C206.604 34.128 206.79 33.26 207.41 33.26C208.092 33.26 208.65 34.066 209.704 35.182C210.448 35.988 219.872 46.094 228.924 55.084C233.14 59.3 241.51 68.228 242.564 69.22H242.874L242.254 41.382C242.192 37.6 241.634 36.422 240.146 35.802C239.216 35.43 237.728 35.43 236.86 35.43C236.116 35.43 235.868 35.244 235.868 34.872C235.868 34.376 236.55 34.314 237.48 34.314C240.704 34.314 243.68 34.5 244.982 34.5C245.664 34.5 248.02 34.314 251.058 34.314C251.864 34.314 252.484 34.376 252.484 34.872C252.484 35.244 252.112 35.43 251.368 35.43C250.748 35.43 250.252 35.43 249.508 35.616C247.772 36.112 247.276 37.414 247.214 40.886L246.532 80.008C246.532 81.372 246.284 81.93 245.726 81.93C245.044 81.93 244.3 81.248 243.618 80.566C239.712 76.846 231.776 68.724 225.328 62.338C218.57 55.642 211.688 47.892 210.572 46.714H210.386Z" fill="black"/>
<path d="M145.623 138.029V128.831C145.623 119.255 145.623 117.491 145.497 115.475C145.371 113.333 144.867 112.325 142.788 111.884C142.284 111.758 141.213 111.695 140.331 111.695C139.638 111.695 139.26 111.569 139.26 111.128C139.26 110.687 139.701 110.561 140.646 110.561C143.985 110.561 147.954 110.75 149.844 110.75C151.356 110.75 155.325 110.561 157.593 110.561C158.538 110.561 158.979 110.687 158.979 111.128C158.979 111.569 158.601 111.695 157.971 111.695C157.278 111.695 156.9 111.758 156.144 111.884C154.443 112.199 153.939 113.27 153.813 115.475C153.687 117.491 153.687 119.255 153.687 128.831V137.651C153.687 146.786 155.514 150.629 158.601 153.149C161.436 155.48 164.334 155.732 166.476 155.732C169.248 155.732 172.65 154.85 175.17 152.33C178.635 148.865 178.824 143.195 178.824 136.706V128.831C178.824 119.255 178.824 117.491 178.698 115.475C178.572 113.333 178.068 112.325 175.989 111.884C175.485 111.758 174.414 111.695 173.721 111.695C173.028 111.695 172.65 111.569 172.65 111.128C172.65 110.687 173.091 110.561 173.973 110.561C177.186 110.561 181.155 110.75 181.218 110.75C181.974 110.75 185.943 110.561 188.4 110.561C189.282 110.561 189.723 110.687 189.723 111.128C189.723 111.569 189.345 111.695 188.589 111.695C187.896 111.695 187.518 111.758 186.762 111.884C185.061 112.199 184.557 113.27 184.431 115.475C184.305 117.491 184.305 119.255 184.305 128.831V135.572C184.305 142.565 183.612 149.999 178.32 154.535C173.847 158.378 169.311 159.071 165.216 159.071C161.877 159.071 155.829 158.882 151.23 154.724C148.017 151.826 145.623 147.164 145.623 138.029ZM209.855 128.831V139.919C209.855 147.983 209.855 152.33 211.178 153.464C212.249 154.409 213.887 154.85 218.801 154.85C222.14 154.85 224.597 154.787 226.172 153.086C226.928 152.267 227.684 150.503 227.81 149.306C227.873 148.739 227.999 148.361 228.503 148.361C228.944 148.361 229.007 148.676 229.007 149.432C229.007 150.125 228.566 154.85 228.062 156.677C227.684 158.063 227.369 158.378 224.093 158.378C219.557 158.378 216.281 158.252 213.446 158.189C210.611 158.063 208.343 158 205.76 158C205.067 158 203.681 158 202.169 158.063C200.72 158.063 199.082 158.189 197.822 158.189C197.003 158.189 196.562 158 196.562 157.559C196.562 157.244 196.814 157.055 197.57 157.055C198.515 157.055 199.271 156.929 199.838 156.803C201.098 156.551 201.413 155.165 201.665 153.338C201.98 150.692 201.98 145.715 201.98 139.919V128.831C201.98 119.255 201.98 117.491 201.854 115.475C201.728 113.333 201.224 112.325 199.145 111.884C198.641 111.758 197.885 111.695 197.066 111.695C196.373 111.695 195.995 111.569 195.995 111.128C195.995 110.687 196.436 110.561 197.381 110.561C200.342 110.561 204.311 110.75 206.012 110.75C207.524 110.75 212.123 110.561 214.58 110.561C215.462 110.561 215.903 110.687 215.903 111.128C215.903 111.569 215.525 111.695 214.769 111.695C214.076 111.695 213.068 111.758 212.312 111.884C210.611 112.199 210.107 113.27 209.981 115.475C209.855 117.491 209.855 119.255 209.855 128.831ZM240.125 139.919V128.831C240.125 119.255 240.125 117.491 239.999 115.475C239.873 113.333 239.369 112.325 237.29 111.884C236.786 111.758 235.715 111.695 234.833 111.695C234.14 111.695 233.762 111.569 233.762 111.128C233.762 110.687 234.203 110.561 235.148 110.561C238.487 110.561 242.456 110.75 244.22 110.75C246.173 110.75 250.142 110.561 253.922 110.561C261.797 110.561 272.318 110.561 279.185 117.743C282.335 121.019 285.296 126.248 285.296 133.745C285.296 141.683 281.957 147.731 278.429 151.322C275.531 154.283 268.979 158.756 257.324 158.756C255.056 158.756 252.473 158.567 250.079 158.378C247.685 158.189 245.48 158 243.905 158C243.212 158 241.826 158 240.314 158.063C238.865 158.063 237.227 158.189 235.967 158.189C235.148 158.189 234.707 158 234.707 157.559C234.707 157.244 234.959 157.055 235.715 157.055C236.66 157.055 237.416 156.929 237.983 156.803C239.243 156.551 239.558 155.165 239.81 153.338C240.125 150.692 240.125 145.715 240.125 139.919ZM248 127.823V135.761C248 142.439 248.063 147.29 248.126 148.487C248.189 150.062 248.315 152.582 248.819 153.275C249.638 154.472 252.095 155.795 257.072 155.795C263.498 155.795 267.782 154.535 271.562 151.259C275.594 147.794 276.854 142.061 276.854 135.572C276.854 127.571 273.515 122.405 270.806 119.822C265.01 114.278 257.828 113.522 252.914 113.522C251.654 113.522 249.323 113.711 248.819 113.963C248.252 114.215 248.063 114.53 248.063 115.223C248 117.365 248 122.846 248 127.823ZM306.12 147.038V141.872C306.12 138.47 305.49 137.084 304.671 135.257C304.23 134.249 295.788 120.389 293.583 117.113C292.008 114.782 290.433 113.207 289.236 112.514C288.417 112.073 287.346 111.695 286.59 111.695C286.086 111.695 285.645 111.569 285.645 111.128C285.645 110.75 286.086 110.561 286.842 110.561C287.976 110.561 292.701 110.75 294.78 110.75C296.103 110.75 298.686 110.561 301.521 110.561C302.151 110.561 302.466 110.75 302.466 111.128C302.466 111.506 302.025 111.569 301.08 111.821C300.513 111.947 300.198 112.451 300.198 112.955C300.198 113.459 300.513 114.215 300.954 115.097C301.836 116.987 310.656 132.17 311.664 133.934C312.294 132.422 320.232 118.562 321.114 116.609C321.744 115.223 321.996 114.152 321.996 113.333C321.996 112.703 321.744 112.01 320.673 111.758C320.106 111.632 319.539 111.506 319.539 111.128C319.539 110.687 319.854 110.561 320.61 110.561C322.689 110.561 324.705 110.75 326.532 110.75C327.918 110.75 332.076 110.561 333.273 110.561C333.966 110.561 334.407 110.687 334.407 111.065C334.407 111.506 333.903 111.695 333.21 111.695C332.58 111.695 331.383 111.947 330.438 112.451C329.115 113.081 328.422 113.837 327.036 115.538C324.957 118.058 316.137 132.863 315.003 135.572C314.058 137.84 314.058 139.793 314.058 141.872V147.038C314.058 148.046 314.058 150.692 314.247 153.338C314.373 155.165 314.94 156.551 316.83 156.803C317.712 156.929 319.098 157.055 319.98 157.055C320.673 157.055 320.988 157.244 320.988 157.559C320.988 158 320.484 158.189 319.665 158.189C315.696 158.189 311.727 158 310.026 158C308.451 158 304.482 158.189 302.151 158.189C301.269 158.189 300.765 158.063 300.765 157.559C300.765 157.244 301.08 157.055 301.773 157.055C302.655 157.055 303.411 156.929 303.978 156.803C305.238 156.551 305.805 155.165 305.931 153.338C306.12 150.692 306.12 148.046 306.12 147.038ZM344.924 154.535H360.422C366.848 154.535 369.305 152.96 370.312 151.07C370.88 150.062 371.258 148.928 371.447 148.046C371.573 147.416 371.699 147.038 372.077 147.038C372.581 147.038 372.707 147.479 372.707 148.991C372.707 151.007 371.888 155.102 371.447 156.677C371.132 157.811 370.691 158.315 369.557 158.315C359.036 158.315 348.452 158 335.726 158C335.033 158 334.655 157.811 334.655 157.37C334.655 156.929 334.844 156.614 335.6 155.48C344.483 141.62 353.807 127.382 362.249 114.089H349.901C346.688 114.089 342.845 114.278 340.829 115.412C338.75 116.546 337.616 118.877 337.427 120.326C337.301 121.208 337.049 121.46 336.671 121.46C336.23 121.46 336.167 121.145 336.167 120.389C336.167 118.94 337.112 113.207 337.427 111.317C337.553 110.435 337.805 110.12 338.183 110.12C338.75 110.12 339.128 110.498 340.703 110.561C346.688 110.813 349.712 110.75 352.295 110.75H371.51C372.14 110.75 372.581 110.939 372.581 111.254C372.581 111.632 372.329 112.01 372.077 112.451C363.383 126.563 353.807 140.99 344.924 154.535Z" fill="black"/>
<path d="M120.316 143.856V124.053C120.316 113.565 120.316 111.633 120.178 109.425C120.04 107.079 119.488 105.975 117.211 105.492C116.659 105.354 115.486 105.285 114.52 105.285C113.761 105.285 113.347 105.147 113.347 104.664C113.347 104.181 113.83 104.043 114.865 104.043C118.522 104.043 122.869 104.25 124.663 104.25C126.319 104.25 130.666 104.043 133.357 104.043C134.323 104.043 134.806 104.181 134.806 104.664C134.806 105.147 134.392 105.285 133.564 105.285C132.805 105.285 132.391 105.354 131.563 105.492C129.7 105.837 129.148 107.01 129.01 109.425C128.872 111.633 128.872 113.565 128.872 124.053V136.818C128.872 139.785 129.079 143.097 129.079 146.547C129.079 150.48 128.803 154.896 127.423 158.76C125.974 162.969 122.317 167.73 115.693 171.801C114.796 172.353 113.692 172.905 112.243 173.595C111.76 173.871 111.208 174.009 110.863 174.009C110.587 174.009 110.311 173.802 110.311 173.457C110.311 173.112 110.656 172.836 111.829 172.215C112.726 171.732 113.761 170.973 115.141 169.593C120.385 164.28 120.316 157.38 120.316 143.856Z" fill="black"/>
<path d="M67.926 96.396H37.152C36.462 96.396 36.186 96.672 35.91 97.5L28.458 117.234C27.078 120.684 26.388 123.996 26.388 125.652C26.388 128.136 27.63 129.93 31.908 129.93H33.978C35.634 129.93 36.048 130.206 36.048 131.034C36.048 132.138 35.22 132.414 33.702 132.414C29.286 132.414 23.352 132 19.074 132C17.556 132 9.966 132.414 2.79 132.414C0.996 132.414 0.168 132.138 0.168 131.034C0.168 130.206 0.72 129.93 1.824 129.93C3.066 129.93 4.998 129.792 6.102 129.654C12.45 128.826 15.072 124.134 17.832 117.234L52.47 30.57C54.126 26.568 54.954 25.05 56.334 25.05C57.576 25.05 58.404 26.292 59.784 29.466C63.096 37.056 85.176 93.36 94.008 114.336C99.252 126.756 103.254 128.688 106.152 129.378C108.222 129.792 110.292 129.93 111.948 129.93C113.052 129.93 113.742 130.068 113.742 131.034C113.742 132.138 112.5 132.414 107.394 132.414C102.426 132.414 92.352 132.414 81.312 132.138C78.828 132 77.172 132 77.172 131.034C77.172 130.206 77.724 129.93 79.104 129.792C80.07 129.516 81.036 128.274 80.346 126.618L69.306 97.362C69.03 96.672 68.616 96.396 67.926 96.396ZM39.912 89.496H65.304C65.994 89.496 66.132 89.082 65.994 88.668L53.574 54.582C53.436 54.03 53.298 53.34 52.884 53.34C52.47 53.34 52.194 54.03 52.056 54.582L39.36 88.53C39.222 89.082 39.36 89.496 39.912 89.496Z" fill="black"/>
<path d="M163.018 88.731C164.058 88.731 164.925 88.9823 165.618 89.485C166.32 89.9877 166.801 90.694 167.061 91.604H165.748C165.323 90.4253 164.409 89.836 163.005 89.836C162.052 89.836 161.272 90.1783 160.665 90.863C160.058 91.5303 159.755 92.3927 159.755 93.45C159.755 94.49 160.058 95.3523 160.665 96.037C161.272 96.7217 162.065 97.064 163.044 97.064C163.919 97.064 164.613 96.8387 165.124 96.388C165.635 95.9373 165.904 95.2873 165.93 94.438H163.2V93.333H167.178V93.944C167.178 95.27 166.81 96.3057 166.073 97.051C165.328 97.7963 164.318 98.169 163.044 98.169C161.718 98.169 160.635 97.7227 159.794 96.83C158.945 95.9287 158.52 94.802 158.52 93.45C158.52 92.0893 158.94 90.9627 159.781 90.07C160.622 89.1773 161.701 88.731 163.018 88.731ZM172.065 88.9C172.975 88.9 173.699 89.1513 174.236 89.654C174.773 90.148 175.042 90.811 175.042 91.643C175.042 92.241 174.89 92.7567 174.587 93.19C174.284 93.6147 173.859 93.9223 173.313 94.113L175.432 98H174.08L172.091 94.308H170.765V98H169.582V88.9H172.065ZM170.765 93.242H172.065C172.611 93.242 173.044 93.099 173.365 92.813C173.686 92.527 173.846 92.137 173.846 91.643C173.846 91.1317 173.686 90.733 173.365 90.447C173.044 90.1523 172.611 90.005 172.065 90.005H170.765V93.242ZM181.644 88.731C182.996 88.731 184.105 89.1773 184.972 90.07C185.847 90.9713 186.285 92.0937 186.285 93.437C186.285 94.7977 185.847 95.9287 184.972 96.83C184.105 97.7227 182.996 98.169 181.644 98.169C180.283 98.169 179.17 97.7227 178.303 96.83C177.428 95.9287 176.99 94.7977 176.99 93.437C176.99 92.0937 177.428 90.9713 178.303 90.07C179.17 89.1773 180.283 88.731 181.644 88.731ZM181.644 89.836C180.63 89.836 179.807 90.1783 179.174 90.863C178.541 91.5303 178.225 92.3883 178.225 93.437C178.225 94.4857 178.541 95.3523 179.174 96.037C179.807 96.7217 180.63 97.064 181.644 97.064C182.641 97.064 183.455 96.7217 184.088 96.037C184.729 95.3437 185.05 94.477 185.05 93.437C185.05 92.4057 184.729 91.5477 184.088 90.863C183.455 90.1783 182.641 89.836 181.644 89.836ZM195.618 94.399C195.618 95.6123 195.31 96.544 194.695 97.194C194.08 97.844 193.2 98.169 192.056 98.169C190.912 98.169 190.028 97.844 189.404 97.194C188.789 96.544 188.481 95.6123 188.481 94.399V88.9H189.664V94.399C189.664 96.1757 190.461 97.064 192.056 97.064C192.836 97.064 193.425 96.8387 193.824 96.388C194.231 95.9373 194.435 95.2743 194.435 94.399V88.9H195.618V94.399ZM200.994 88.9C201.913 88.9 202.636 89.16 203.165 89.68C203.702 90.1913 203.971 90.863 203.971 91.695C203.971 92.5183 203.702 93.1857 203.165 93.697C202.636 94.1997 201.913 94.451 200.994 94.451H199.486V98H198.303V88.9H200.994ZM199.486 93.346H200.994C201.54 93.346 201.973 93.1987 202.294 92.904C202.615 92.6093 202.775 92.2063 202.775 91.695C202.775 91.175 202.61 90.7633 202.281 90.46C201.96 90.1567 201.531 90.005 200.994 90.005H199.486V93.346ZM213.697 88.731C215.049 88.731 216.158 89.1773 217.025 90.07C217.9 90.9713 218.338 92.0937 218.338 93.437C218.338 94.7977 217.9 95.9287 217.025 96.83C216.158 97.7227 215.049 98.169 213.697 98.169C212.336 98.169 211.222 97.7227 210.356 96.83C209.48 95.9287 209.043 94.7977 209.043 93.437C209.043 92.0937 209.48 90.9713 210.356 90.07C211.222 89.1773 212.336 88.731 213.697 88.731ZM213.697 89.836C212.683 89.836 211.859 90.1783 211.227 90.863C210.594 91.5303 210.278 92.3883 210.278 93.437C210.278 94.4857 210.594 95.3523 211.227 96.037C211.859 96.7217 212.683 97.064 213.697 97.064C214.693 97.064 215.508 96.7217 216.141 96.037C216.782 95.3437 217.103 94.477 217.103 93.437C217.103 92.4057 216.782 91.5477 216.141 90.863C215.508 90.1783 214.693 89.836 213.697 89.836ZM225.552 90.005H221.834V92.878H224.993V93.996H221.834V98H220.651V88.9H225.552V90.005ZM235.152 88.731C236.192 88.731 237.059 88.9823 237.752 89.485C238.454 89.9877 238.935 90.694 239.195 91.604H237.882C237.458 90.4253 236.548 89.836 235.152 89.836C234.19 89.836 233.406 90.1783 232.799 90.863C232.193 91.5303 231.889 92.3927 231.889 93.45C231.889 94.49 232.193 95.3523 232.799 96.037C233.406 96.7217 234.195 97.064 235.165 97.064C235.867 97.064 236.457 96.9037 236.933 96.583C237.41 96.2623 237.744 95.8203 237.934 95.257H239.208C238.948 96.193 238.472 96.9123 237.778 97.415C237.085 97.9177 236.214 98.169 235.165 98.169C233.839 98.169 232.756 97.7227 231.915 96.83C231.075 95.9373 230.654 94.8107 230.654 93.45C230.654 92.0893 231.075 90.9627 231.915 90.07C232.756 89.1773 233.835 88.731 235.152 88.731ZM245.47 88.731C246.822 88.731 247.931 89.1773 248.798 90.07C249.673 90.9713 250.111 92.0937 250.111 93.437C250.111 94.7977 249.673 95.9287 248.798 96.83C247.931 97.7227 246.822 98.169 245.47 98.169C244.109 98.169 242.996 97.7227 242.129 96.83C241.254 95.9287 240.816 94.7977 240.816 93.437C240.816 92.0937 241.254 90.9713 242.129 90.07C242.996 89.1773 244.109 88.731 245.47 88.731ZM245.47 89.836C244.456 89.836 243.633 90.1783 243 90.863C242.367 91.5303 242.051 92.3883 242.051 93.437C242.051 94.4857 242.367 95.3523 243 96.037C243.633 96.7217 244.456 97.064 245.47 97.064C246.467 97.064 247.281 96.7217 247.914 96.037C248.555 95.3437 248.876 94.477 248.876 93.437C248.876 92.4057 248.555 91.5477 247.914 90.863C247.281 90.1783 246.467 89.836 245.47 89.836ZM261.784 98H260.601V91.227L260.354 91.903L257.572 98H256.623L253.854 91.903L253.607 91.227V98H252.424V88.9H253.724L256.844 95.582L257.091 96.167L257.351 95.582L260.484 88.9H261.784V98ZM267.27 88.9C268.189 88.9 268.912 89.16 269.441 89.68C269.978 90.1913 270.247 90.863 270.247 91.695C270.247 92.5183 269.978 93.1857 269.441 93.697C268.912 94.1997 268.189 94.451 267.27 94.451H265.762V98H264.579V88.9H267.27ZM265.762 93.346H267.27C267.816 93.346 268.249 93.1987 268.57 92.904C268.891 92.6093 269.051 92.2063 269.051 91.695C269.051 91.175 268.886 90.7633 268.557 90.46C268.236 90.1567 267.807 90.005 267.27 90.005H265.762V93.346ZM278.718 98H277.418L276.456 95.595H272.439L271.49 98H270.19L273.843 88.9H275.065L278.718 98ZM274.272 90.915L272.842 94.49H276.053L274.61 90.915L274.441 90.421L274.272 90.915ZM287.979 98H286.809L282.285 91.474L281.934 90.915V98H280.751V88.9H281.908L286.406 95.4L286.796 95.998V88.9H287.979V98ZM291.957 98H290.774V88.9H291.957V98ZM299.77 90.005H295.948V92.761H299.315V93.866H295.948V96.895H299.77V98H294.765V88.9H299.77V90.005ZM304.577 88.731C305.392 88.731 306.033 88.9563 306.501 89.407C306.978 89.849 307.225 90.4817 307.242 91.305H306.046C306.038 90.837 305.899 90.4687 305.63 90.2C305.362 89.9313 305.002 89.797 304.551 89.797C304.118 89.797 303.776 89.9183 303.524 90.161C303.273 90.4037 303.147 90.7417 303.147 91.175C303.147 91.5823 303.273 91.8987 303.524 92.124C303.793 92.3407 304.27 92.5833 304.954 92.852C305.899 93.2073 306.562 93.5757 306.943 93.957C307.333 94.347 307.528 94.8713 307.528 95.53C307.528 96.336 307.268 96.9773 306.748 97.454C306.237 97.9307 305.557 98.169 304.707 98.169C303.78 98.169 303.048 97.9133 302.51 97.402C301.982 96.8907 301.709 96.1973 301.691 95.322H302.887C302.896 95.894 303.061 96.336 303.381 96.648C303.702 96.96 304.148 97.116 304.72 97.116C305.232 97.116 305.626 96.9817 305.903 96.713C306.189 96.4357 306.332 96.0673 306.332 95.608C306.332 95.2267 306.189 94.9147 305.903 94.672C305.617 94.4207 305.123 94.1737 304.421 93.931C303.581 93.619 302.957 93.2723 302.549 92.891C302.151 92.501 301.951 91.9593 301.951 91.266C301.951 90.538 302.181 89.9313 302.64 89.446C303.108 88.9693 303.754 88.731 304.577 88.731Z" fill="black"/>
<line x1="159" y1="93" x2="34" y2="93" stroke="black" stroke-width="6"/>
</svg>
